<svg width="100%" height="100%" viewBox="0 0 16 16" fill="current" xmlns="http://www.w3.org/2000/svg">
<path d="M8.60634 5.33337C8.60634 5.002 8.33771 4.73337 8.00634 4.73337C7.67497 4.73337 7.40634 5.002 7.40634 5.33337H8.60634ZM7.40634 8.66671C7.40634 8.99808 7.67497 9.26671 8.00634 9.26671C8.33771 9.26671 8.60634 8.99808 8.60634 8.66671H7.40634ZM8.00634 11.2667C8.33771 11.2667 8.60634 10.9981 8.60634 10.6667C8.60634 10.3353 8.33771 10.0667 8.00634 10.0667V11.2667ZM7.99967 10.0667C7.6683 10.0667 7.39967 10.3353 7.39967 10.6667C7.39967 10.9981 7.6683 11.2667 7.99967 11.2667V10.0667ZM8.85676 1.56369L8.55685 2.08336L8.55685 2.08336L8.85676 1.56369ZM9.49338 2.19541L8.97702 2.50097L8.97704 2.50101L9.49338 2.19541ZM9.49506 2.19825L10.0131 1.89552L10.0114 1.89265L9.49506 2.19825ZM14.4323 10.6471L14.9551 10.3525L14.9503 10.3443L14.4323 10.6471ZM14.6663 11.5376L14.0663 11.5392L14.6663 11.5376ZM14.4371 12.4294L13.9127 12.1378L13.9127 12.1378L14.4371 12.4294ZM13.8053 13.086L13.4954 12.5723V12.5723L13.8053 13.086ZM12.9385 13.3333L12.9318 12.7333H12.9317L12.9385 13.3333ZM12.9321 13.3334L12.9321 13.9334L12.9389 13.9333L12.9321 13.3334ZM3.06083 13.3333L3.05408 13.9333H3.06083L3.06083 13.3333ZM2.19405 13.086L1.88416 13.5998H1.88416L2.19405 13.086ZM1.56226 12.4294L1.03788 12.721H1.03788L1.56226 12.4294ZM1.33301 11.5376L1.93301 11.5392L1.33301 11.5376ZM1.56713 10.6471L1.04437 10.3526L1.04437 10.3526L1.56713 10.6471ZM1.57179 10.6388L1.0537 10.3361L1.04904 10.3443L1.57179 10.6388ZM6.50596 2.19541L5.98959 1.88984L5.98793 1.89268L6.50596 2.19541ZM7.40634 5.33337L7.40634 8.66671H8.60634L8.60634 5.33337H7.40634ZM8.00634 10.0667H7.99967V11.2667H8.00634V10.0667ZM7.99967 0.733374C7.59346 0.733374 7.19493 0.840741 6.84268 1.04403L7.44249 2.08336C7.61353 1.98466 7.80538 1.93337 7.99967 1.93337V0.733374ZM9.15667 1.04403C8.80442 0.840741 8.40589 0.733374 7.99967 0.733374V1.93337C8.19397 1.93337 8.38582 1.98466 8.55685 2.08336L9.15667 1.04403ZM10.0097 1.88985C9.80215 1.53904 9.50881 1.24725 9.15667 1.04403L8.55685 2.08336C8.728 2.18213 8.87317 2.32548 8.97702 2.50097L10.0097 1.88985ZM10.0114 1.89265L10.0097 1.88981L8.97704 2.50101L8.97872 2.50385L10.0114 1.89265ZM15.2663 11.536C15.2652 11.1214 15.1583 10.7134 14.955 10.3526L13.9095 10.9416C14.0113 11.1223 14.0658 11.3284 14.0663 11.5392L15.2663 11.536ZM14.9615 12.721C15.1627 12.3591 15.2675 11.9506 15.2663 11.536L14.0663 11.5392C14.0669 11.75 14.0136 11.9564 13.9127 12.1378L14.9615 12.721ZM14.1152 13.5998C14.4689 13.3865 14.7602 13.083 14.9615 12.721L13.9127 12.1378C13.8119 12.3192 13.6675 12.4685 13.4954 12.5723L14.1152 13.5998ZM12.9453 13.9333C13.358 13.9286 13.7613 13.8132 14.1152 13.5998L13.4954 12.5723C13.3234 12.676 13.1291 12.7311 12.9318 12.7333L12.9453 13.9333ZM12.9389 13.9333L12.9453 13.9333L12.9317 12.7333L12.9253 12.7334L12.9389 13.9333ZM1.88416 13.5998C2.23797 13.8132 2.64135 13.9287 3.05408 13.9333L3.06759 12.7334C2.87026 12.7312 2.67596 12.676 2.50394 12.5723L1.88416 13.5998ZM1.03788 12.721C1.23916 13.083 1.53043 13.3865 1.88416 13.5998L2.50394 12.5723C2.33185 12.4685 2.18747 12.3192 2.08664 12.1378L1.03788 12.721ZM0.733017 11.536C0.731884 11.9506 0.836641 12.3591 1.03788 12.721L2.08664 12.1378C1.98575 11.9564 1.93244 11.75 1.93301 11.5392L0.733017 11.536ZM1.04437 10.3526C0.841138 10.7134 0.73415 11.1213 0.733017 11.536L1.93301 11.5392C1.93359 11.3285 1.98803 11.1224 2.08989 10.9416L1.04437 10.3526ZM1.04904 10.3443L1.04437 10.3526L2.08988 10.9416L2.09455 10.9333L1.04904 10.3443ZM6.84268 1.04403C6.49055 1.24724 6.19719 1.53903 5.98959 1.88985L7.02232 2.50097C7.12617 2.32548 7.27134 2.18214 7.44249 2.08336L6.84268 1.04403ZM14.9503 10.3443L10.0131 1.89552L8.97703 2.50097L13.9143 10.9498L14.9503 10.3443ZM3.06083 13.9333L12.9321 13.9334L12.9321 12.7334L3.06084 12.7333L3.06083 13.9333ZM5.98793 1.89268L1.05376 10.3361L2.08982 10.9416L7.02399 2.49813L5.98793 1.89268Z" fill="current"/>
</svg>
